# xmcd
#
# Track frame offsets: 
#        150
#        12503
#        24806
#        34968
#        48586
#        60783
#        70365
#        90850
#        108504
#        123685
#        142540
#        155388
#        172941
#        189759
#        205446
#        224461
#        242933
#        257948
#        271558
#        284054
#
# Disc length: 4082 seconds
#
# Revision: 0
# Processed by: cddbd v1.5.2PL0 Copyright (c) Steve Scherf et al.
# Submitted via: ExactAudioCopyFreeDBPlugin 1.0
#
DISCID=170ff014
DTITLE=Elkie Brooks - Sunshine After The Rain - The Collection [CD2
DTITLE=)
DYEAR=2010
DGENRE=Pop
TTITLE0=Something's Got A Hold On Me
TTITLE1=Hello Stranger
TTITLE2=Nothing Left To Do But Cry
TTITLE3=Strange Tho' It Seems
TTITLE4=The Way You Do The Things You Do
TTITLE5=Blue Tonight
TTITLE6=Vinegar Joe - Proud To Be (A Honky Woman)
TTITLE7=Vinegar Joe - Lady Of The Rain
TTITLE8=Rescue Me
TTITLE9=Vinegar Joe - Speed Queen Of Ventura
TTITLE10=He's A Rebel
TTITLE11=Try A Little Love
TTITLE12=Where Do We Go From Here
TTITLE13=Do Right Woman Do Right Man
TTITLE14=As
TTITLE15=Dreamdealer
TTITLE16=I've Been In Love Before
TTITLE17=Black Coffee
TTITLE18=I'd Rather Go Blind
TTITLE19=Roadhouse Blue
EXTD=
EXTT0=
EXTT1=
EXTT2=
EXTT3=
EXTT4=
EXTT5=
EXTT6=
EXTT7=
EXTT8=
EXTT9=
EXTT10=
EXTT11=
EXTT12=
EXTT13=
EXTT14=
EXTT15=
EXTT16=
EXTT17=
EXTT18=
EXTT19=
PLAYORDER=
